<svg xmlns="http://www.w3.org/2000/svg" viewBox="0 0 122 32">
  <g fill="#4876bb" fill-rule="evenodd">
    <path d="M112.28 8.672c-1.195 0-2.152-.713-.717-1.902 1.435-1.188 4.783-4.753 5.98-6.18 1.195-1.425 1.912 0 2.152 1.427.239 1.426 1.195 6.892 2.152 7.605.957.713-2.87 3.328-3.348-2.852-2.392 6.655-9.168 11.726-21.286 15.212-2.152.237-1.196-1.902.957-2.377 4.6-1.016 17.22-6.893 18.655-14.736-2.233 2.535-3.747 3.803-4.544 3.803zM7.195 27.524l-.001 3.042c.003.298-.185.457-.566.476a.77.77 0 01-.306-.037c-.522-.187-.799-.572-.83-1.155a3.403 3.403 0 01.002-.313c.005-.126.016-.272.03-.44.016-.168.026-.315.031-.44.006-.126.006-.23.002-.313.015-.168.03-.383.046-.647.016-.263.033-.568.05-.915a8.345 8.345 0 01-2.692 1.877 1.07 1.07 0 01-.424.093c-.547.03-1.069-.254-1.565-.848-.279-.319-.432-.74-.46-1.264-.021-.416.052-.95.22-1.603.53-1.972 1.435-3.91 2.719-5.813.654-.953 1.242-1.443 1.765-1.47.476-.025.753.14.831.493.013.023.022.07.026.142.011.226-.087.398-.295.516l-.64.41A14.207 14.207 0 003.8 21.271a19.97 19.97 0 00-1.186 2.469c-.456 1.085-.66 2.068-.614 2.948l.012.232c.003.07.013.148.03.23.024.011.06.06.106.147s.099.129.158.126a.037.037 0 00.027-.01c.005-.007.014-.01.026-.01.769-.351 1.91-1.228 3.422-2.63.115-.09.237-.371.367-.843a.683.683 0 01.257-.398.651.651 0 01.324-.133c.01-.013.034-.02.07-.022l.098-.005a.795.795 0 00.15-.026l.09-.004c.095-.005.162.015.2.06.243.322.37.59.382.804a.751.751 0 01-.054.342 8.643 8.643 0 00-.349 1.36 8.704 8.704 0 00-.12 1.616zm1.62-1.533a5.34 5.34 0 01.1-1.338c.089-.452.237-.862.444-1.231.208-.369.472-.672.794-.91a2.058 2.058 0 011.142-.39c.31-.016.582.017.82.1.236.083.436.198.598.344.163.147.288.316.376.508.088.193.137.396.148.61a2.147 2.147 0 01-.511 1.512c-.18.211-.406.387-.679.527a2.53 2.53 0 01-.944.255 1.53 1.53 0 01-.41.004 4.265 4.265 0 01-.417-.086.795.795 0 00-.01.153l.006.098c.034.44.124.78.268 1.023.144.243.296.423.457.54.162.117.314.19.459.217.145.028.24.041.288.039.369-.02.67-.119.906-.298l.783-.596.2.07c.073.026.141.08.205.16.016.07.03.126.045.167a.732.732 0 01.027.187.835.835 0 01-.111.426 1.57 1.57 0 01-.244.308c-.295.278-.575.462-.838.553-.264.092-.61.149-1.038.171a2.58 2.58 0 01-.711-.088 4.413 4.413 0 01-.719-.23c-.296-.2-.53-.402-.702-.608a2.72 2.72 0 01-.41-.658 3.134 3.134 0 01-.218-.73 11.02 11.02 0 01-.105-.81zm1.5-1.045c.05.01.124.014.225.015.102 0 .182 0 .242-.004.404-.02.71-.138.92-.352a.96.96 0 00.292-.749.821.821 0 00-.167-.456.448.448 0 00-.404-.194 1.686 1.686 0 00-.346.054.386.386 0 00-.25.192 2.175 2.175 0 01-.15.187.96.96 0 00-.157.259 2.48 2.48 0 00-.13.409c-.04.163-.064.376-.074.639zm5.381-5.881l-.096-1.838a2.226 2.226 0 01.03-.466l.225-.128a.52.52 0 01.23-.057.985.985 0 01.496.081.778.778 0 01.3.253c.07.103.121.223.152.359.031.135.05.268.057.4.013.249.03.466.052.65.021.183.037.364.046.542.01.19.017.378.02.563.004.185.011.372.021.562.007.131.011.268.013.411.001.143.006.292.014.447.004.07.013.136.028.195.015.059.07.086.166.08.309-.016.577-.08.803-.194a2.02 2.02 0 01.804-.194c.167-.008.283.051.35.179a.943.943 0 01.11.388.57.57 0 01-.089.37.703.703 0 01-.257.22 1.992 1.992 0 01-.341.134 6.57 6.57 0 00-.36.117 2.84 2.84 0 01-.377.154c-.147.05-.284.108-.412.174-.127.066-.236.15-.326.25a.485.485 0 00-.125.364c.005.083.012.16.022.231a2.58 2.58 0 01.022.437c-.001.078 0 .159.004.242.028.535.096 1.089.204 1.662.107.572.222 1.124.346 1.654.044.165.094.33.15.493.057.164.089.317.096.46.011.202-.035.354-.137.455a.882.882 0 01-.346.215c-.118.03-.189.045-.213.046a.698.698 0 01-.463-.145 1.508 1.508 0 01-.37-.401 3.668 3.668 0 01-.187-.67 8.386 8.386 0 01-.122-.78c-.066-.582-.12-1.16-.162-1.737l-.127-1.737a.949.949 0 00-.016-.133.443.443 0 00-.052-.132 1.9 1.9 0 00-.526.189 1.105 1.105 0 01-.494.133.86.86 0 01-.619-.2 5.46 5.46 0 01-.394-.355 1.85 1.85 0 01.063-.504c.151-.068.292-.117.421-.148l.38-.091c.124-.03.25-.067.379-.11a2.04 2.04 0 00.419-.2c.19-.01.296-.09.318-.24.022-.15.03-.28.025-.386a13.972 13.972 0 00-.038-.544c-.013-.148-.028-.36-.042-.633a21.63 21.63 0 00-.037-.544 16.902 16.902 0 01-.038-.543zm11.44 5.286l.079.139c.261.44.505.883.731 1.33.226.447.354.956.384 1.527a2.31 2.31 0 01-.49 1.564 1.986 1.986 0 01-.617.515 1.846 1.846 0 01-.794.221c-.25.013-.483-.073-.702-.258a1.042 1.042 0 01-.383-.651.812.812 0 01.123-.212c.04-.044.13-.088.27-.13.151.134.297.198.44.19.202-.01.376-.108.521-.295a1 1 0 00.197-.69.523.523 0 00-.028-.177 7.872 7.872 0 00-.575-1.428 33.97 33.97 0 00-.662-1.19 16.09 16.09 0 01-.565-1.053c-.16-.332-.25-.67-.268-1.015a5.705 5.705 0 01.025-.887c.032-.306.1-.592.206-.86a1.81 1.81 0 01.439-.667c.187-.177.436-.274.745-.29a.502.502 0 01.098.004c.03.004.063.006.1.004.118-.006.222.05.312.171.09.12.155.228.196.32a.273.273 0 01-.087.23 2.537 2.537 0 00-.178.178 1.913 1.913 0 00-.279.65 2.588 2.588 0 00-.061.71l.022.428c.005.083.04.2.108.352a9.848 9.848 0 00.488.95c.085.144.153.25.205.32zm2.636-6.024l-.097-1.837a2.226 2.226 0 01.03-.467l.225-.128a.52.52 0 01.23-.057.985.985 0 01.496.082.778.778 0 01.3.252c.07.104.122.223.153.359.03.135.05.269.056.4.013.25.03.466.052.65.022.183.037.364.047.543.01.19.017.378.02.562.004.185.01.372.02.563.008.13.012.267.013.41.002.143.007.292.015.447.004.071.013.136.028.195.015.059.07.086.165.08.31-.015.577-.08.804-.193a2.02 2.02 0 01.804-.194c.166-.01.283.05.349.178a.943.943 0 01.11.388.57.57 0 01-.088.371.703.703 0 01-.257.22 1.992 1.992 0 01-.342.134 6.57 6.57 0 00-.36.117 2.84 2.84 0 01-.377.154 3 3 0 00-.411.173c-.128.067-.237.15-.327.25a.485.485 0 00-.124.364c.004.084.011.16.021.232a2.58 2.58 0 01.023.437c-.002.077 0 .158.004.241.028.535.095 1.09.203 1.662.108.573.223 1.124.346 1.654.044.165.095.33.151.493.056.164.088.318.096.46.01.203-.035.354-.137.455a.882.882 0 01-.347.215c-.118.03-.188.046-.212.047a.698.698 0 01-.464-.146 1.508 1.508 0 01-.37-.4 3.668 3.668 0 01-.187-.67 8.386 8.386 0 01-.121-.782c-.067-.58-.12-1.159-.163-1.735l-.127-1.738a.949.949 0 00-.016-.133.443.443 0 00-.051-.131c-.212.046-.388.11-.527.188a1.105 1.105 0 01-.494.133.86.86 0 01-.619-.2 5.46 5.46 0 01-.394-.355 1.85 1.85 0 01.063-.504c.152-.068.292-.117.422-.147l.38-.092c.123-.03.25-.066.378-.109.13-.043.269-.11.42-.2.19-.01.296-.09.318-.241.022-.15.03-.279.024-.386a13.972 13.972 0 00-.037-.544 15.728 15.728 0 01-.042-.633c-.01-.178-.022-.36-.038-.543a16.902 16.902 0 01-.037-.544zm10.042 8.329l.144.35.122.289a.908.908 0 01.07.291.334.334 0 01-.069.236.598.598 0 01-.189.153 1.147 1.147 0 01-.467.132c-.238.013-.44-.11-.61-.37a3.74 3.74 0 01-.426-.98 14.564 14.564 0 01-.308-1.254c-.088-.442-.172-.84-.25-1.194-.023.252-.122.573-.298.964a5.84 5.84 0 01-.683 1.136c-.28.366-.59.683-.934.952-.344.268-.694.412-1.05.43-.286.016-.524-.029-.714-.132a1.18 1.18 0 01-.442-.397 1.705 1.705 0 01-.225-.552 3.45 3.45 0 01-.084-.577c-.02-.392.052-.882.218-1.47a8.242 8.242 0 01.714-1.727 6.063 6.063 0 011.104-1.462c.426-.41.889-.628 1.388-.654.107-.006.23.006.369.034.138.029.28.066.426.112.145.046.286.104.42.175.135.07.252.138.351.205.211.156.36.375.446.656.086.282.155.576.207.884.115.59.208 1.125.281 1.604.073.48.189.983.348 1.511l.141.655zm-4.94-.403l.005.089c0 .012.004.02.01.026.006.006.01.015.01.027.154-.02.327-.134.519-.34.192-.208.382-.453.57-.737.187-.284.36-.582.516-.895.157-.312.27-.59.341-.832.042-.11.092-.231.151-.365.059-.135.117-.272.175-.412.058-.14.105-.27.14-.392a.95.95 0 00.047-.306 2.13 2.13 0 01-.164-.063.355.355 0 00-.162-.028.958.958 0 00-.68.34 3.454 3.454 0 00-.491.706 5.514 5.514 0 00-.328.741c-.083.237-.14.386-.173.448a5.417 5.417 0 00-.369.985c-.095.35-.134.687-.117 1.008zm6.519.82l-.004-.07c.02-.061.03-.172.027-.333-.002-.16-.01-.36-.022-.598-.012-.226-.028-.47-.048-.73l-.055-.722a58.266 58.266 0 00-.071-.846l-.031-.59a11.552 11.552 0 00-.068-.783 33.97 33.97 0 01-.086-.782l-.004-.072a.727.727 0 00-.087-.308.766.766 0 01-.089-.326.85.85 0 01.178-.367c.078-.088.225-.137.439-.149.202-.01.365.02.488.091a.766.766 0 01.282.271c.066.11.111.236.136.378.026.142.048.278.066.408l.104.943c.113-.102.231-.248.352-.44.121-.19.248-.397.38-.618.13-.222.268-.438.412-.648.144-.21.296-.385.456-.525a.795.795 0 01.353-.09c.285-.015.517.027.695.125.178.098.321.263.429.496a.967.967 0 01-.177.376c-.1.142-.215.291-.344.447l-.403.486a4.6 4.6 0 00-.36.493c-.168.2-.334.441-.498.724a8.473 8.473 0 00-.752 1.694c-.082.26-.118.469-.11.623.005.095.015.229.03.401.015.172.025.306.03.401.007.143.003.289-.013.439-.016.15-.057.29-.121.418a.874.874 0 01-.27.318.839.839 0 01-.458.14.736.736 0 01-.555-.176.691.691 0 01-.231-.498zm6.379-9.69l-.096-1.837a2.226 2.226 0 01.029-.466l.226-.128a.52.52 0 01.23-.057.985.985 0 01.495.081.778.778 0 01.3.253c.07.103.122.223.153.359.03.135.05.268.057.4.013.249.03.466.051.65.022.183.037.364.047.542.01.19.017.378.02.563.004.185.01.372.02.562.008.131.012.268.013.411.002.143.007.292.015.447.004.07.013.136.028.195.015.059.07.086.165.08.31-.016.577-.08.804-.194a2.02 2.02 0 01.804-.194c.166-.008.283.051.349.179a.943.943 0 01.11.388.57.57 0 01-.088.37.703.703 0 01-.257.22 1.992 1.992 0 01-.342.134 6.57 6.57 0 00-.36.117 2.84 2.84 0 01-.377.154c-.146.05-.283.108-.411.174-.128.066-.237.15-.327.25a.485.485 0 00-.124.364c.004.083.011.16.021.231a2.58 2.58 0 01.023.437c-.002.078 0 .158.004.242.028.535.096 1.089.203 1.662.108.572.223 1.124.346 1.654.045.165.095.33.151.493.057.164.088.317.096.46.01.202-.035.354-.137.455a.882.882 0 01-.347.215c-.117.03-.188.045-.212.046a.698.698 0 01-.464-.145 1.508 1.508 0 01-.37-.401 3.668 3.668 0 01-.187-.67 8.386 8.386 0 01-.121-.78c-.066-.582-.12-1.16-.163-1.737l-.127-1.737a.949.949 0 00-.015-.133.443.443 0 00-.052-.132c-.212.047-.388.11-.527.189a1.105 1.105 0 01-.494.133.86.86 0 01-.618-.2 5.46 5.46 0 01-.395-.355 1.85 1.85 0 01.063-.504 2.41 2.41 0 01.422-.148l.38-.091c.123-.03.25-.067.379-.11.129-.042.268-.109.418-.2.19-.01.297-.09.319-.24.022-.15.03-.28.024-.386a13.972 13.972 0 00-.037-.544 15.86 15.86 0 01-.042-.633c-.01-.178-.022-.36-.038-.544a16.902 16.902 0 01-.037-.543zm3.822 6.366c-.023-.44.01-.886.1-1.338.09-.452.238-.862.445-1.231.207-.369.471-.672.793-.91a2.058 2.058 0 011.142-.39c.31-.016.583.017.82.1.236.083.436.198.599.344.163.147.288.316.375.508.088.193.137.396.149.61a2.147 2.147 0 01-.511 1.512c-.18.211-.407.387-.68.527a2.53 2.53 0 01-.943.255c-.154.02-.291.021-.411.004a4.265 4.265 0 01-.416-.086.795.795 0 00-.01.153l.005.098c.035.44.124.78.268 1.023.144.243.297.423.458.54.16.117.314.19.458.217.145.029.241.041.289.039.368-.02.67-.119.905-.298l.783-.596.2.07c.073.026.142.08.206.16.015.07.03.126.044.167a.732.732 0 01.028.187.835.835 0 01-.112.426c-.071.117-.153.22-.243.308-.296.278-.575.462-.839.553-.263.092-.61.149-1.037.171-.19.01-.428-.02-.712-.088a4.413 4.413 0 01-.718-.23 3.335 3.335 0 01-.703-.608 2.72 2.72 0 01-.41-.658 3.134 3.134 0 01-.217-.73 11.02 11.02 0 01-.105-.81zm1.501-1.045c.048.01.123.014.225.015.101 0 .181 0 .241-.004.404-.02.711-.138.92-.352a.96.96 0 00.292-.749.821.821 0 00-.167-.456.448.448 0 00-.403-.194 1.686 1.686 0 00-.346.054.386.386 0 00-.25.192 2.175 2.175 0 01-.15.187.96.96 0 00-.157.259c-.048.11-.092.246-.13.41-.04.162-.065.375-.075.638zm9.803.005l.004.071c.003.048.03.16.08.336.051.176.115.364.19.562.077.2.15.392.22.58.068.187.123.315.162.384.079.127.14.261.182.402.044.141.099.281.166.42.012.239-.039.408-.153.51a.572.572 0 01-.349.161l-.223.012a.75.75 0 01-.224-.006 2.967 2.967 0 01-.347-.143c-.11-.054-.232-.214-.365-.482-.064-.08-.132-.228-.203-.445a13.76 13.76 0 01-.206-.696 26.373 26.373 0 00-.198-.696 2.455 2.455 0 00-.176-.465 5.23 5.23 0 01-.36 1.333 4.23 4.23 0 01-.608 1.025 2.881 2.881 0 01-.752.666c-.266.157-.53.242-.791.256-.595.031-1.04-.145-1.334-.53-.294-.384-.457-.873-.488-1.468a4.878 4.878 0 01.091-1.15c.08-.42.201-.839.364-1.253.163-.414.366-.806.61-1.177.242-.37.513-.67.81-.9.047-.027.127-.09.241-.192.114-.102.29-.158.528-.17a1.72 1.72 0 01.494.045c.163.039.323.078.48.118a14.019 14.019 0 00-.118-1.228 13.42 13.42 0 01-.115-1.175 42.175 42.175 0 00-.033-.455 44.43 44.43 0 01-.058-.936l-.019-.365a4.242 4.242 0 00-.038-.383c.019-.096.02-.2.002-.313a.348.348 0 01.091-.3.81.81 0 01.352-.278c.146-.061.29-.096.433-.103a.587.587 0 01.512.215.866.866 0 01.206.516c.022.405.027.79.016 1.153-.01.365-.004.767.019 1.207.014.274.049.597.104.97.055.372.11.712.16 1.02.038.248.076.52.115.817a25 25 0 00.137.896c.051.301.108.593.17.876.063.283.136.536.22.758zm-4.13 2.435a.877.877 0 00.629-.302 2.62 2.62 0 00.43-.666c.118-.257.217-.524.298-.803.08-.278.163-.521.248-.728a9.15 9.15 0 01.132-.544c.05-.182.07-.373.06-.576-.002-.035-.024-.055-.066-.059a3.705 3.705 0 00-.153-.01 1.848 1.848 0 01-.18-.017.163.163 0 01-.13-.1 1.794 1.794 0 010-.18c.002-.06.002-.119 0-.178a.502.502 0 01-.1-.004.612.612 0 00-.116-.003 6.39 6.39 0 01-.524.752 2.33 2.33 0 00-.43.854l-.157.572a4.076 4.076 0 00-.101.462 4.142 4.142 0 00-.05.933.75.75 0 00.088.299c.053.105.094.204.123.298zm10.678-1.4l-.017-.322a51.518 51.518 0 00-.155-2.103 52.784 52.784 0 01-.228-4.871c0-.441.017-.863.05-1.264s.083-.747.151-1.036c.2-.07.37-.11.513-.117.25-.013.439.07.568.248.128.178.199.386.211.624a3.98 3.98 0 01-.03.797 4.766 4.766 0 00-.05.745c.004.525.008 1.01.014 1.458.005.446.016.878.032 1.295l.046 1.223c.015.398.033.806.055 1.222a8.23 8.23 0 01.398-.95c.15-.307.312-.58.484-.822s.36-.437.56-.584a1.12 1.12 0 01.605-.238c.322.007.593.11.812.307.219.197.395.435.53.714.133.28.232.567.295.861.063.295.1.538.11.728.057.188.101.403.132.646.03.243.063.465.097.666.068.39.173.787.313 1.19.14.405.232.779.274 1.122a.657.657 0 01-.216.334c-.114.101-.218.154-.313.16-.298.015-.543-.115-.736-.392a3.469 3.469 0 01-.462-.968 6.73 6.73 0 01-.247-1.123 12.01 12.01 0 01-.089-.836 4.023 4.023 0 00-.072-.533 8.817 8.817 0 00-.14-.61 4.2 4.2 0 00-.16-.492c-.054-.135-.105-.2-.153-.198-.14.055-.271.175-.393.36a3.484 3.484 0 00-.331.67c-.1.262-.19.538-.27.829-.08.29-.146.568-.198.833a17.28 17.28 0 00-.183 1.119l.005.089c.001.024 0 .039-.006.045-.006.006-.008.021-.007.045l.004.071a8.815 8.815 0 01-.024.395 2.204 2.204 0 01-.061.37.808.808 0 01-.129.284.27.27 0 01-.208.118c-.31.017-.554-.036-.733-.158a1.172 1.172 0 01-.41-.488 2.131 2.131 0 01-.18-.689 16.725 16.725 0 01-.058-.775zm6.517-1.272c-.023-.44.01-.886.1-1.338a4.09 4.09 0 01.445-1.231c.207-.369.471-.672.793-.91a2.058 2.058 0 011.142-.39c.31-.016.582.017.82.1.236.083.436.198.599.344.162.147.288.316.375.508.088.192.137.396.148.61a2.147 2.147 0 01-.511 1.512c-.18.211-.406.387-.679.527a2.53 2.53 0 01-.943.255c-.154.02-.291.021-.412.004a4.265 4.265 0 01-.416-.086.795.795 0 00-.01.153l.006.098c.035.44.124.78.268 1.023.144.243.296.423.458.54.16.116.314.189.458.217.145.028.24.041.288.039.37-.02.671-.119.906-.298l.783-.596.2.07a.47.47 0 01.205.16c.016.07.03.126.045.167a.732.732 0 01.028.186.835.835 0 01-.112.427c-.072.117-.153.22-.243.308-.296.277-.575.462-.839.553-.264.092-.61.149-1.038.171a2.57 2.57 0 01-.71-.088 4.413 4.413 0 01-.72-.23c-.296-.2-.53-.402-.702-.608a2.72 2.72 0 01-.41-.658 3.134 3.134 0 01-.217-.731 11.02 11.02 0 01-.105-.808zm1.501-1.045c.048.01.123.014.225.015.1 0 .181 0 .24-.004.405-.02.712-.138.922-.352a.96.96 0 00.291-.749.821.821 0 00-.167-.456.448.448 0 00-.403-.194 1.686 1.686 0 00-.346.054.386.386 0 00-.25.192 2.175 2.175 0 01-.151.187.96.96 0 00-.156.259c-.048.11-.092.246-.131.409-.04.163-.064.376-.074.639zm4.692 3.51l-.004-.07c.021-.061.03-.172.028-.333-.003-.161-.01-.36-.023-.598-.012-.226-.027-.47-.047-.731l-.056-.722a58.266 58.266 0 00-.07-.846l-.032-.588a11.552 11.552 0 00-.068-.784 34.05 34.05 0 01-.085-.783l-.004-.071a.727.727 0 00-.088-.308.766.766 0 01-.089-.327.85.85 0 01.178-.367c.079-.087.225-.137.44-.148.202-.01.364.02.487.09a.766.766 0 01.283.272c.065.11.11.236.136.378.025.141.047.277.066.408l.103.942a2.04 2.04 0 00.353-.439c.12-.19.247-.397.379-.619.131-.221.269-.437.413-.648.144-.21.296-.385.455-.524a.795.795 0 01.353-.09c.286-.015.518.026.696.124.178.098.32.264.428.497a.967.967 0 01-.177.376c-.1.142-.214.291-.343.447l-.404.486a4.36 4.36 0 00-.359.493c-.168.2-.334.44-.498.724a8.473 8.473 0 00-.752 1.694c-.082.26-.119.468-.11.623.004.095.014.229.029.4.015.173.025.307.03.402a2.83 2.83 0 01-.013.439c-.016.15-.056.289-.121.417a.874.874 0 01-.27.319.839.839 0 01-.457.14.736.736 0 01-.555-.177.691.691 0 01-.232-.497zM86.88 21.9c-.023-.44.01-.886.1-1.338.09-.451.238-.862.446-1.23.207-.369.471-.672.793-.91a2.058 2.058 0 011.142-.39c.31-.017.582.017.82.1.236.083.436.198.599.344.162.147.287.316.375.508.088.192.137.395.148.61a2.147 2.147 0 01-.511 1.512c-.18.211-.406.387-.679.527a2.53 2.53 0 01-.944.255c-.153.02-.29.021-.41.003a4.265 4.265 0 01-.417-.085.795.795 0 00-.01.152l.006.099c.035.439.124.78.268 1.023.144.243.296.423.457.54.162.116.315.189.46.217.144.028.24.041.287.039.369-.02.67-.12.906-.298l.783-.596.2.07c.073.026.141.08.205.16.016.07.03.126.045.167a.732.732 0 01.027.186.835.835 0 01-.111.427c-.072.117-.153.22-.244.307-.295.278-.575.463-.838.554-.264.092-.61.148-1.038.17-.19.01-.427-.019-.71-.087a4.413 4.413 0 01-.72-.23c-.296-.2-.53-.402-.702-.608a2.72 2.72 0 01-.41-.658 3.134 3.134 0 01-.218-.731 11.02 11.02 0 01-.105-.809zm1.502-1.044c.048.01.123.014.224.015.102 0 .182 0 .242-.004.404-.021.71-.139.92-.352a.96.96 0 00.292-.749.821.821 0 00-.167-.456.448.448 0 00-.404-.194 1.686 1.686 0 00-.346.054.386.386 0 00-.249.192 2.175 2.175 0 01-.151.187.96.96 0 00-.157.258c-.047.11-.091.247-.13.41-.04.163-.064.376-.074.639z"/>
  </g>
</svg>