<svg xmlns="http://www.w3.org/2000/svg" viewBox="0 0 92 30">
  <g fill="#666" fill-rule="evenodd">
    <path fill-rule="nonzero" d="M1.353 18.475l-.464-.436c-.182-.164-.277-.32-.285-.466a1.203 1.203 0 01.03-.202c.058-.163.2-.264.425-.303l.516-.087c1.144.18 2.349.745 3.613 1.694.334.25.608.515.823.798.689.911 1.055 1.78 1.098 2.606.025.466-.04.876-.196 1.232-.058.15-.114.306-.165.469-.052.163-.107.32-.166.47a3.793 3.793 0 01-.474.885c-.2.278-.392.548-.579.812-.186.263-.38.527-.579.791-.474.626-.91 1.09-1.309 1.39-.125.167-.26.335-.404.502-.145.168-.29.256-.437.264-.093.004-.248-.024-.465-.086-.217-.062-.37-.171-.458-.327-.07-.557-.12-1.155-.154-1.794-.017-.333-.032-.74-.044-1.22-.012-.48-.021-1.046-.029-1.7-.008-.654-.017-1.221-.029-1.701s-.026-.887-.044-1.22a24.845 24.845 0 00-.095-1.236c-.04-.399-.084-.777-.13-1.135zM3.4 26.218c1.426-1.583 2.103-3.054 2.032-4.412a3.929 3.929 0 00-.07-.557c-.163-.833-.915-1.534-2.253-2.105.013.76.03 1.53.051 2.31.021.78.053 1.59.097 2.429l.061 1.158c.02.386.048.779.082 1.177zm5.211 1.23l-.004-.08a1.27 1.27 0 00.03-.373c-.002-.18-.01-.403-.024-.67a41.944 41.944 0 00-.053-.818l-.063-.807a65.233 65.233 0 00-.08-.948l-.034-.659a12.3 12.3 0 00-.076-.877 38.909 38.909 0 01-.096-.876l-.004-.08a.813.813 0 00-.098-.345.858.858 0 01-.1-.366.951.951 0 01.2-.41c.087-.099.251-.154.491-.167.227-.011.409.022.546.102a.86.86 0 01.317.304c.073.123.124.264.152.423.028.158.053.31.074.456l.115 1.056a2.31 2.31 0 00.395-.492c.136-.214.277-.445.424-.693.148-.248.302-.49.463-.725.161-.235.331-.431.51-.588a.89.89 0 01.395-.1c.32-.017.58.03.779.14.199.109.359.294.48.555-.02.121-.087.261-.199.42a8.16 8.16 0 01-.384.502l-.452.544a4.786 4.786 0 00-.402.552 5.665 5.665 0 00-.558.81 9.487 9.487 0 00-.842 1.897c-.092.292-.133.524-.124.697.006.107.017.256.034.449.016.193.028.342.033.449.009.16.004.323-.014.491a1.348 1.348 0 01-.136.468.978.978 0 01-.302.356.94.94 0 01-.512.157c-.253.014-.46-.052-.621-.197a.774.774 0 01-.26-.558zm12.054-1.193l.161.392c.046.104.091.212.137.323.046.111.072.22.077.327a.374.374 0 01-.076.264.669.669 0 01-.211.171 1.285 1.285 0 01-.523.148c-.267.014-.494-.124-.683-.415a4.187 4.187 0 01-.478-1.096c-.13-.44-.244-.909-.344-1.404-.1-.496-.193-.942-.28-1.338-.026.282-.137.642-.334 1.08a6.538 6.538 0 01-.765 1.271c-.312.41-.66.766-1.045 1.066-.385.3-.777.462-1.177.483-.32.016-.586-.033-.799-.149a1.322 1.322 0 01-.494-.445c-.116-.18-.2-.386-.252-.617a3.863 3.863 0 01-.094-.646c-.023-.44.058-.988.244-1.645a9.227 9.227 0 01.8-1.935 6.788 6.788 0 011.236-1.637c.477-.459.995-.703 1.554-.732.12-.006.257.007.412.039.156.031.315.073.478.125.163.051.32.116.47.195.151.08.282.156.393.23.236.175.403.42.5.735.096.315.173.645.231.99.128.66.233 1.259.315 1.795.081.537.21 1.1.389 1.692l.158.733zm-5.53-.451l.004.1c.001.013.005.023.012.029.007.006.01.016.011.03.173-.023.367-.15.581-.381.215-.232.428-.507.638-.825a9.68 9.68 0 00.578-1.002c.176-.35.303-.66.382-.93a9.84 9.84 0 01.169-.41c.066-.15.131-.304.196-.461.065-.157.118-.303.157-.439.04-.136.057-.25.053-.343a2.384 2.384 0 01-.184-.07.397.397 0 00-.182-.031 1.073 1.073 0 00-.761.38 3.867 3.867 0 00-.55.79 6.174 6.174 0 00-.367.83 4.816 4.816 0 01-.194.501 6.13 6.13 0 00-.413 1.103c-.106.393-.15.77-.13 1.129zm7.106-1.194l-.004-.08a2.22 2.22 0 00-.17-.752 2.22 2.22 0 01-.169-.752 6.028 6.028 0 00-.157-1.093 5.92 5.92 0 01-.157-1.074 3.715 3.715 0 01.032-.732c.034-.236.191-.36.47-.375.48-.026.789.065.926.271.138.207.215.457.23.75.019.359.07.693.153 1.003.083.31.156.683.219 1.12l.067.527c.022.166.057.328.106.485.089-.084.166-.202.232-.352a6.2 6.2 0 00.185-.48l.164-.49a2.39 2.39 0 01.17-.4c.099-.151.183-.323.253-.513s.147-.375.232-.553c.084-.178.176-.337.275-.475a.727.727 0 01.366-.28c.109.035.23.065.365.091.135.027.26.067.377.12a.776.776 0 01.293.236c.079.102.123.247.133.433.031.6.135 1.178.31 1.736.177.559.35 1.047.518 1.465.219-.412.402-.872.549-1.38.147-.509.275-1 .383-1.472.109-.473.203-.909.282-1.307.08-.398.16-.693.244-.884.061-.11.18-.203.356-.279.176-.076.325-.117.444-.123.2-.01.378.063.533.222.155.159.236.311.244.458.005.093-.016.261-.064.504-.047.243-.11.513-.187.81a50.45 50.45 0 01-.541 1.912 31.5 31.5 0 01-.25.784c-.075.224-.13.377-.166.46-.118.286-.22.578-.304.876a4.901 4.901 0 01-.308.818c-.12.246-.27.448-.449.604-.179.156-.428.243-.747.26-.32.016-.579-.084-.777-.3a3.119 3.119 0 01-.524-.824c-.15-.333-.29-.69-.416-1.07a5.28 5.28 0 00-.454-1.017 7.527 7.527 0 00-.27.595c-.094.232-.189.467-.283.705-.094.239-.192.471-.294.697a3.143 3.143 0 01-.32.567.612.612 0 00-.147.258.817.817 0 01-.098.236.565.565 0 01-.191.18c-.084.051-.226.082-.426.092-.28.015-.497-.054-.651-.206a1.544 1.544 0 01-.36-.572 2.99 2.99 0 01-.17-.742 14.238 14.238 0 01-.057-.698zm14.822-.737l-.019-.36a57.678 57.678 0 00-.173-2.353 59.095 59.095 0 01-.256-5.454c0-.494.02-.966.056-1.415.037-.45.093-.836.17-1.16a2 2 0 01.574-.13c.28-.016.491.077.635.276.144.2.223.433.237.699.017.333.006.63-.033.893-.04.262-.059.54-.057.834.004.587.01 1.13.016 1.631.006.5.018.984.035 1.45l.052 1.37c.017.446.037.902.062 1.368a9.44 9.44 0 01.445-1.065c.169-.342.35-.649.542-.92a2.86 2.86 0 01.627-.653c.225-.165.45-.254.677-.266.361.008.664.122.91.343.244.221.442.488.592.8.15.313.26.634.33.964.072.33.112.602.124.815.064.21.113.451.148.723.034.272.07.52.109.746.076.436.193.88.35 1.333.157.452.26.871.306 1.256a.735.735 0 01-.24.373c-.128.113-.245.173-.352.178-.333.018-.607-.128-.824-.437a3.884 3.884 0 01-.517-1.084 7.535 7.535 0 01-.276-1.258 13.447 13.447 0 01-.1-.936 4.504 4.504 0 00-.08-.596 9.871 9.871 0 00-.157-.683 4.703 4.703 0 00-.179-.551c-.061-.15-.118-.225-.172-.222-.157.062-.303.196-.44.404a3.9 3.9 0 00-.37.75 10.28 10.28 0 00-.302.927c-.09.325-.164.636-.222.933a19.347 19.347 0 00-.204 1.253l.005.1c.001.026-.001.043-.008.05-.006.007-.008.024-.007.05l.004.08a9.87 9.87 0 01-.027.442 2.468 2.468 0 01-.068.414.904.904 0 01-.144.318.303.303 0 01-.233.133c-.346.018-.62-.041-.82-.178a1.312 1.312 0 01-.46-.546 2.386 2.386 0 01-.2-.77c-.029-.286-.05-.576-.066-.869zm7.296-1.423a6.049 6.049 0 01.111-1.498c.1-.506.267-.966.499-1.378.232-.413.528-.752.888-1.018s.786-.412 1.279-.438c.346-.018.652.02.917.113.265.092.489.22.671.385.182.164.322.354.42.569.098.215.154.442.166.682a2.404 2.404 0 01-.572 1.692 2.43 2.43 0 01-.76.59 2.833 2.833 0 01-1.057.287 1.696 1.696 0 01-.46.004 4.775 4.775 0 01-.466-.096.89.89 0 00-.01.17l.005.11c.04.492.14.874.3 1.146.162.272.332.474.513.604.18.131.351.212.513.244.162.031.27.046.323.043.413-.022.75-.133 1.014-.334l.876-.666.225.078c.081.03.158.089.23.178.017.08.033.142.05.188a.82.82 0 01.03.209.935.935 0 01-.125.477c-.08.13-.17.246-.272.345-.331.31-.644.517-.94.62-.294.102-.682.165-1.16.19a2.863 2.863 0 01-.797-.098 4.94 4.94 0 01-.805-.258 3.715 3.715 0 01-.786-.68 3.046 3.046 0 01-.46-.737 3.51 3.51 0 01-.243-.818 12.338 12.338 0 01-.117-.905zm1.68-1.17c.055.01.138.016.252.017.114 0 .204 0 .27-.004.453-.024.796-.155 1.03-.395a1.07 1.07 0 00.327-.838.92.92 0 00-.187-.51.502.502 0 00-.451-.217 1.888 1.888 0 00-.388.06.433.433 0 00-.279.215c-.05.07-.106.139-.17.209-.062.07-.12.167-.174.29a2.796 2.796 0 00-.147.458 3.786 3.786 0 00-.082.715zm5.254 3.93l-.005-.08a1.27 1.27 0 00.031-.371 29.996 29.996 0 00-.078-1.488l-.062-.808a65.233 65.233 0 00-.08-.947l-.035-.66a12.35 12.35 0 00-.076-.877 38.909 38.909 0 01-.096-.876l-.004-.08a.813.813 0 00-.098-.345.858.858 0 01-.1-.365.951.951 0 01.2-.411c.088-.098.252-.154.492-.166.226-.012.408.022.546.101.137.08.243.181.316.304.073.123.124.264.152.423.029.158.053.31.074.456l.116 1.056c.127-.114.259-.277.395-.492.135-.214.277-.445.424-.693.147-.248.301-.49.463-.725.16-.235.33-.431.51-.587a.89.89 0 01.395-.101c.32-.017.579.03.778.14.2.109.36.294.48.555-.02.121-.087.261-.198.42-.112.16-.24.327-.385.502l-.452.544a5 5 0 00-.402.552 5.665 5.665 0 00-.558.81 9.487 9.487 0 00-.842 1.897c-.091.292-.133.524-.123.697.005.107.016.256.033.45.017.192.028.341.034.448.008.16.003.324-.015.491a1.348 1.348 0 01-.135.468.978.978 0 01-.302.356.94.94 0 01-.513.157c-.253.014-.46-.052-.62-.197a.774.774 0 01-.26-.557zm5.289-3.4a6.049 6.049 0 01.112-1.499c.1-.506.266-.965.498-1.378.232-.413.528-.752.888-1.018s.786-.411 1.279-.437c.346-.018.652.019.917.112s.49.221.671.385c.182.164.323.354.42.57.099.214.154.442.167.681a2.404 2.404 0 01-.572 1.692 2.43 2.43 0 01-.76.591 2.833 2.833 0 01-1.057.286 1.696 1.696 0 01-.46.004 4.775 4.775 0 01-.466-.096.89.89 0 00-.011.171l.005.11c.04.492.14.874.3 1.146.162.272.333.473.513.604.18.13.352.212.513.243.162.032.27.046.323.043.413-.021.75-.132 1.014-.333l.876-.667.225.078c.081.03.158.089.23.179.017.079.034.141.05.187a.82.82 0 01.03.209.935.935 0 01-.125.477c-.08.131-.17.246-.272.345-.331.311-.644.518-.94.62-.294.102-.681.166-1.16.191a2.863 2.863 0 01-.797-.098 4.94 4.94 0 01-.805-.259 3.715 3.715 0 01-.786-.68 3.046 3.046 0 01-.46-.736 3.51 3.51 0 01-.243-.819 12.338 12.338 0 01-.117-.905zm1.681-1.17c.054.01.138.016.251.016.114.001.204 0 .27-.004.453-.024.797-.155 1.031-.394.235-.24.343-.519.327-.839a.92.92 0 00-.187-.51.502.502 0 00-.452-.217 1.888 1.888 0 00-.388.06.433.433 0 00-.279.215c-.05.07-.106.14-.169.21a1.08 1.08 0 00-.175.289 2.796 2.796 0 00-.146.458 3.786 3.786 0 00-.083.715z"/>
    <path d="M82.28 8.672c-1.195 0-2.152-.713-.717-1.902 1.435-1.188 4.783-4.753 5.98-6.18 1.195-1.425 1.912 0 2.152 1.427.239 1.426 1.195 6.892 2.152 7.605.957.713-2.87 3.328-3.348-2.852-2.392 6.655-9.168 11.726-21.286 15.212-2.152.237-1.196-1.902.957-2.377 4.6-1.016 17.22-6.893 18.655-14.736-2.233 2.535-3.747 3.803-4.544 3.803z"/>
  </g>
</svg>